# xmcd
#
# Track frame offsets:
#	150
#	14576
#	25874
#	36986
#	47515
#	58532
#	69819
#	83574
#	91547
#	100899
#	114164
#	125482
#	136255
#	149605
#	162381
#	173164
#
# Disc length: 2489 seconds
#
# Revision: 1
# Processed by: cddbd v1.5.2PL0 Copyright (c) Steve Scherf et al.
# Submitted via: audiograbber 1.83.01
#
DISCID=c809b710
DTITLE=Zwakkelmann - Kulturbeutel 2010
DYEAR=2010
DGENRE=Punk
TTITLE0=Jetzt kommst du
TTITLE1=Marathonmann
TTITLE2=Kontrolliertes Trinken
TTITLE3=Onanie
TTITLE4=Ja- vielleicht bin ich asozial
TTITLE5=Träume von gestern
TTITLE6=Menschen bei der Nahrungsaufnahme
TTITLE7=Muss scheissen
TTITLE8=Abstürzende Tontauben
TTITLE9=Lonesome Cowboy
TTITLE10=Partymuffel
TTITLE11=Orientierungskrüppel
TTITLE12=Sommerloch
TTITLE13=Erleuchtung
TTITLE14=Einfach
TTITLE15=Nächstes Wochenende
EXTD=
EXTT0=
EXTT1=
EXTT2=
EXTT3=
EXTT4=
EXTT5=
EXTT6=
EXTT7=
EXTT8=
EXTT9=
EXTT10=
EXTT11=
EXTT12=
EXTT13=
EXTT14=
EXTT15=
PLAYORDER=
